<?xml version="1.0" encoding="iso-8859-1"?>
<svg version="1.1" id="Layer_1" xmlns="http://www.w3.org/2000/svg" xmlns:xlink="http://www.w3.org/1999/xlink" x="0px" y="0px"
	 viewBox="0 0 500 500" style="enable-background:new 0 0 500 500;" xml:space="preserve">


<g>
	<path style="fill:#1D1D1B;" d="M178.093,94.746c0,14.4-11.673,26.073-26.074,26.073c-14.4,0-26.073-11.673-26.073-26.073
		c0-14.4,11.673-26.074,26.073-26.074C166.42,68.672,178.093,80.345,178.093,94.746z"/>
	<path style="fill:#1D1D1B;" d="M62.393,346.357v-86.368h15.97v-10.755c0,0,0.327-8.8,12.385-8.8
		c0-13.036,0.081-59.806,0.081-78.383s6.437-35.688,30.881-35.688s50.517,0,50.517,0s38.133-3.259,38.133,45.629s0,51.821,0,68.117
		s-23.14,19.229-23.466,0c0-23.792,0-67.14,0-67.14h-4.889c0,0,0,181.537,0,199.789c0,18.252-28.681,20.859-28.681,0
		c0-25.422,0-115.376,0-115.376h-5.54c0,0,0,102.012,0,115.701c-0.326,17.601-29.007,19.23-29.984,0v-27.051L62.393,346.357z"/>
	<polygon style="fill:#1D1D1B;" points="202.538,306.921 202.538,315.069 241.648,315.069 241.648,438.593 256.315,438.593 
		256.315,314.417 328.669,314.417 328.669,306.921 	"/>
	<polygon style="fill:#1D1D1B;" points="338.772,438.267 338.772,354.831 426.119,354.831 426.119,219.575 436.222,219.575 
		436.222,438.919 426.119,438.919 426.119,370.801 353.113,370.801 353.113,438.592 	"/>
	<path style="fill:#1D1D1B;" d="M373.32,302.685c0-6.193,0-15.644,0-15.644s28.436-35.688,38.458-48.562
		c9.289-14.096-9.289-40.496-31.939-21.837c0,0-9.126,9.778-10.104,10.104c-5.214-31.614,52.799-43.021,52.799-2.933
		s-2.281,86.695-2.281,86.695C419.112,305.047,405.423,292.825,373.32,302.685z"/>
	<path style="fill:#1D1D1B;" d="M412.431,165.146c0,14.76-10.141,26.725-22.652,26.725c-12.51,0-22.652-11.965-22.652-26.725
		c0-14.76,10.141-26.726,22.652-26.726C402.289,138.421,412.431,150.386,412.431,165.146z"/>
	<path style="fill:#1D1D1B;" d="M403.956,239.13c13.037-15.318-8.473-34.873-24.117-15.645
		c-22.815,29.985-34.222,45.303-34.222,45.303s-42.695,11.081-51.821,13.036c-9.126,1.956-13.037,25.096,3.584,23.141
		c25.748-3.911,55.081-8.474,55.081-8.474s4.236,0.653,12.384-8.799C372.995,278.241,403.956,239.13,403.956,239.13z"/>
	<path style="fill:#1D1D1B;" d="M333.883,350.268c0,0-20.859,63.554-25.747,77.243c-4.889,13.689-27.377,11.733-24.118-8.8
		c6.519-27.052,20.859-83.762,20.859-83.762s2.283-15.643,23.467-19.229c21.184-3.585,16.62-2.932,58.99-10.103
		c42.37-7.171,39.11,37.48,12.711,40.088C354.417,348.965,333.883,350.268,333.883,350.268z"/>
	<path style="fill:#FFFFFF;" d="M119.429,173.05v85.309h-3.566c0,0,1.189-13.27-1.486-13.27c0-6.635,0-72.039,0-72.039H119.429z"/>
	<g>
		<path style="fill:#1D1D1B;" d="M42.357,33.98c-8.086,8.462-8.64,20.166-8.64,23.212c0,0.301,0.005,0.485,0.009,0.605
			c0,0.107-0.339,385.685-0.339,385.685c0,10.662,3.216,18.849,9.558,24.333c9.864,8.53,23.705,7.223,25.884,6.955
			c0.486,0,368.698,0,368.698,0c6.63,0,12.155-2.255,16.422-6.704c8.384-8.742,9.015-23.346,9.015-27.53
			c0-0.535-0.009-0.854-0.015-1.014c0-0.097,0-383.884,0-383.884c0-23.643-19.977-30.377-30.541-30.635
			c-3.45-0.021-337.733,0.149-366.742,0.149C55.796,25.151,47.954,28.122,42.357,33.98z M48.025,461.866
			c-4.524-3.933-6.817-10.118-6.817-18.385l0.339-385.815l-0.003-0.089c-0.004-0.11-0.353-11.1,6.508-18.236
			c4.063-4.225,9.989-6.368,17.613-6.368c28.986,0,363.247-0.17,366.623-0.15c0.852,0.027,22.837,0.948,22.837,22.814v384.009
			l0.003,0.082c0.006,0.152,0.506,15.302-6.84,22.938c-2.772,2.881-6.292,4.282-10.763,4.282H68.312l-0.281,0.039
			C67.91,467.003,55.786,468.614,48.025,461.866z"/>
	</g>
	<path style="fill:#FFFFFF;" d="M86.511,258.686h20.859v-8.474c0,0-9.125,2.933-11.407-1.956c-4.237,0-6.518,0-6.518,0
		s-2.933-0.326-2.933,3.585C86.511,255.752,86.511,258.686,86.511,258.686z"/>
</g>
</svg>
